<?xml version="1.0" encoding="utf-8"?>
<!-- Generator: Adobe Illustrator 21.1.0, SVG Export Plug-In . SVG Version: 6.00 Build 0)  -->
<svg version="1.1" id="图层_1" xmlns="http://www.w3.org/2000/svg" xmlns:xlink="http://www.w3.org/1999/xlink" x="0px" y="0px"
	 viewBox="0 0 20 20" style="enable-background:new 0 0 20 20;" xml:space="preserve">
<style type="text/css">
	.st0{fill:#FFFFFF;}
</style>
<path class="st0" d="M14.4,10.8L14.4,10.8L6.6,3C6.5,2.9,6.3,2.8,6.1,2.8c-0.4,0-0.7,0.3-0.7,0.7c0,0.2,0.1,0.4,0.2,0.5l0,0l7.3,7.3
	l-7.3,7.3l0,0l0,0l0,0c-0.1,0.1-0.2,0.3-0.2,0.5c0,0.4,0.3,0.7,0.7,0.7c0.2,0,0.4-0.1,0.5-0.2l0,0l0,0c0,0,0,0,0,0l7.8-7.8
	c0.1-0.1,0.2-0.3,0.2-0.5C14.6,11.1,14.5,10.9,14.4,10.8L14.4,10.8z"/>
</svg>
