<?xml version="1.0" encoding="utf-8"?>
<!-- Generator: Adobe Illustrator 21.1.0, SVG Export Plug-In . SVG Version: 6.00 Build 0)  -->
<svg version="1.1" id="图层_1" xmlns="http://www.w3.org/2000/svg" xmlns:xlink="http://www.w3.org/1999/xlink" x="0px" y="0px"
	 viewBox="0 0 20 20" style="enable-background:new 0 0 20 20;" xml:space="preserve">
<style type="text/css">
	.st0{fill:#FFFFFF;}
	.st1{fill:#6492FF;}
</style>
<circle class="st0" cx="10.2" cy="10" r="9.4"/>
<path class="st1" d="M10,20c-5.5,0-9.9-4.5-9.9-10s4.5-10,10-10C15.5,0,20,4.5,20,10S15.5,20,10,20z M10,1.4c-4.7,0-8.6,3.9-8.6,8.6
	s3.9,8.6,8.6,8.6s8.6-3.9,8.6-8.6S14.8,1.4,10,1.4z"/>
<path class="st1" d="M8.5,13.9c-0.2,0-0.3-0.1-0.5-0.2l-3.3-3.3c-0.3-0.3-0.3-0.7,0-0.9c0.3-0.3,0.7-0.3,0.9,0l2.9,2.9l6-6
	c0.3-0.3,0.7-0.3,0.9,0c0.3,0.3,0.3,0.7,0,0.9l-6.5,6.5C8.8,13.8,8.6,13.9,8.5,13.9z"/>
</svg>
