<?xml version="1.0" standalone="no"?><!DOCTYPE svg PUBLIC "-//W3C//DTD SVG 1.1//EN" "http://www.w3.org/Graphics/SVG/1.1/DTD/svg11.dtd"><svg t="1508148632347" class="icon" style="" viewBox="0 0 1024 1024" version="1.1" xmlns="http://www.w3.org/2000/svg" p-id="6235" xmlns:xlink="http://www.w3.org/1999/xlink" width="20" height="20"><defs><style type="text/css"></style></defs><path d="M478.993067 512.436907c-2.409813-1.87392-4.037973-2.884267-5.358933-4.201813-90.76736-90.719573-181.49376-181.486933-272.295253-272.172373-6.406827-6.4-10.349227-13.489493-9.127253-22.756693 1.242453-9.424213 6.33856-16.09728 15.056213-19.729067 8.977067-3.741013 17.38752-2.17088 24.982187 3.751253 1.87392 1.460907 3.505493 3.242667 5.19168 4.928853 90.269013 90.25536 180.5312 180.514133 270.76608 270.80704 1.430187 1.430187 2.464427 3.252907 3.682987 4.89472 0.750933 0.167253 1.501867 0.334507 2.2528 0.50176 1.08544-1.744213 1.880747-3.781973 3.293867-5.195093 90.699093-90.791253 181.466453-181.51424 272.162133-272.305493 6.97344-6.98368 14.759253-10.902187 24.794453-8.649387 18.660693 4.18816 25.77408 26.385067 13.028693 40.628907-1.36192 1.52576-2.863787 2.92864-4.31104 4.375893-90.262187 90.262187-180.52096 180.527787-270.810453 270.762667-1.430187 1.430187-3.208533 2.512213-5.891413 4.580693 2.7648 2.12992 4.703573 3.310933 6.263467 4.870827 90.53184 90.473813 181.019307 180.995413 271.5648 271.455573 5.51936 5.515947 9.567573 11.52 9.519787 19.633493-0.06144 10.40384-4.78208 18.141867-14.056107 22.534827-9.485653 4.491947-18.609493 3.078827-26.729813-3.703467-1.696427-1.416533-3.218773-3.05152-4.785493-4.621653-90.14272-90.139307-180.28544-180.278613-270.41792-270.431573-1.44384-1.44384-2.74432-3.034453-4.5056-5.000533-1.792 1.703253-3.24608 3.0208-4.62848 4.406613-90.86976 90.85952-181.756587 181.705387-272.56832 272.622933-7.318187 7.328427-15.53408 11.001173-25.838933 8.246613-17.769813-4.747947-24.214187-26.210987-12.090027-40.072533 1.344853-1.539413 2.83648-2.952533 4.283733-4.399787 90.38848-90.395307 180.77696-180.7872 271.182507-271.16544C474.924373 515.720533 476.443307 514.604373 478.993067 512.436907z" p-id="6236" fill="#ff6666"></path></svg>