<?xml version="1.0" encoding="utf-8"?>
<!-- Generator: Adobe Illustrator 21.1.0, SVG Export Plug-In . SVG Version: 6.00 Build 0)  -->
<svg version="1.1" id="图层_1" xmlns="http://www.w3.org/2000/svg" xmlns:xlink="http://www.w3.org/1999/xlink" x="0px" y="0px"
	 viewBox="0 0 500 500" style="enable-background:new 0 0 500 500;" xml:space="preserve">
<style type="text/css">
	.st0{fill:#FFFFFF;stroke:#000000;stroke-miterlimit:10;}
	.st1{fill:#B9CEFF;}
	.st2{fill:#FFFFFF;stroke:#6492FF;stroke-width:6;stroke-miterlimit:10;}
	.st3{fill:#B9CEFF;stroke:#6492FF;stroke-width:8;stroke-miterlimit:10;}
	.st4{fill:#FFFFFF;stroke:#6492FF;stroke-width:4;stroke-miterlimit:10;}
	.st5{fill:#6492FF;stroke:#6492FF;stroke-width:4;stroke-miterlimit:10;}
	.st6{fill:#FFFFFF;stroke:#6492FF;stroke-width:8;stroke-miterlimit:10;}
	.st7{fill:#B6CEFF;stroke:#6492FF;stroke-width:8;stroke-miterlimit:10;}
	.st8{fill:none;stroke:#6492FF;stroke-width:10;stroke-miterlimit:10;}
</style>
<circle class="st0" cx="256.3" cy="250.2" r="243.7"/>
<g>
	<circle class="st1" cx="253.1" cy="253.5" r="144"/>
	<path class="st2" d="M272.7,355.3c0,12.8-8.7,23.2-19.5,23.2l0,0c-10.8,0-19.5-10.4-19.5-23.2v-14.6c0-12.8,8.7-23.2,19.5-23.2l0,0
		c10.8,0,19.5,10.4,19.5,23.2V355.3z"/>
	<path class="st3" d="M327.2,367.5H179.1c-25.2,0-65.7,40.7-65.7,78.5v2c39.5,27.5,87.5,43.7,139.3,43.7
		c52.2,0,100.5-16.4,140.2-44.3V446C392.9,408.1,352.4,367.5,327.2,367.5z"/>
	<polyline class="st4" points="179.1,370 253.1,494.2 327.2,370 	"/>
	<polygon class="st5" points="275.7,456.5 260.6,370 247,370 230.8,456.2 246.6,482.6 252.7,487.6 261,481.5 	"/>
	<path class="st6" d="M319.9,273.3c0,31.6-26.7,57.2-59.6,57.2H246c-32.9,0-59.6-25.6-59.6-57.2v-76.6c0-31.6,26.7-57.2,59.6-57.2
		h14.3c32.9,0,59.6,25.6,59.6,57.2V273.3z"/>
	<path class="st7" d="M260.2,139H246c-32.7,0-59.2,25.6-59.2,57.2v21.2c4.8-6.1,15.4-16.2,33.1-15.2c25.3,1.4,29.9,21,46.6,23.5
		c52.4,7.8,62.5-15.2,72.9-31.6l-20-7.9C319.4,154.6,292.9,139,260.2,139z"/>
	<path class="st2" d="M250,365.6c2.1,2.7,2.2,6.1,0.2,7.7l-19,14.9c-2,1.6-5.3,0.7-7.4-2l-9.6-22.2c-2.1-2.7-2.2-6.1-0.2-7.7
		l10.6-8.3c2-1.6,5.3-0.7,7.4,2L250,365.6z"/>
	<path class="st2" d="M283,386.9c-2.1,2.6-5.4,3.5-7.4,1.9l-18.7-15c-2-1.6-1.9-5,0.2-7.7l19.3-14.4c2.1-2.6,5.4-3.5,7.4-1.9
		l10.4,8.3c2,1.6,1.9,5-0.2,7.7L283,386.9z"/>
	<circle class="st8" cx="253.1" cy="250.3" r="243.9"/>
</g>
</svg>
