<?xml version="1.0" encoding="utf-8"?>
<!-- Generator: Adobe Illustrator 21.1.0, SVG Export Plug-In . SVG Version: 6.00 Build 0)  -->
<svg version="1.1" id="图层_1" xmlns="http://www.w3.org/2000/svg" xmlns:xlink="http://www.w3.org/1999/xlink" x="0px" y="0px"
	 viewBox="0 0 20 20" style="enable-background:new 0 0 20 20;" xml:space="preserve">
<style type="text/css">
	.st0{fill:#FFFFFF;}
	.st1{fill:#6492FF;}
</style>
<circle class="st0" cx="10.1" cy="9.9" r="7.7"/>
<path class="st1" d="M10,18.1c-4.5,0-8.1-3.6-8.1-8.1s3.6-8.1,8.1-8.1c4.5,0,8.1,3.6,8.1,8.1S14.5,18.1,10,18.1z M10,3
	c-3.9,0-7,3.2-7,7s3.2,7,7,7s7-3.2,7-7S13.9,3,10,3z"/>
<path class="st1" d="M8.8,13.2c-0.1,0-0.3-0.1-0.4-0.2l-2.7-2.7c-0.2-0.2-0.2-0.5,0-0.8c0.2-0.2,0.5-0.2,0.8,0l2.3,2.3L13.7,7
	c0.2-0.2,0.5-0.2,0.8,0c0.2,0.2,0.2,0.5,0,0.8L9.1,13C9.1,13.1,8.9,13.2,8.8,13.2z"/>
</svg>
