<?xml version="1.0" encoding="utf-8"?>
<!-- Generator: Adobe Illustrator 21.1.0, SVG Export Plug-In . SVG Version: 6.00 Build 0)  -->
<svg version="1.1" id="图层_1" xmlns="http://www.w3.org/2000/svg" xmlns:xlink="http://www.w3.org/1999/xlink" x="0px" y="0px"
	 viewBox="0 0 20 20" style="enable-background:new 0 0 20 20;" xml:space="preserve">
<style type="text/css">
	.st0{fill:#B3CAFF;}
</style>
<path class="st0" d="M10.5,15.7L10.5,15.7l7.8-7.8c0.1-0.1,0.2-0.3,0.2-0.5c0-0.4-0.3-0.7-0.7-0.7c-0.2,0-0.4,0.1-0.5,0.2l0,0
	L10,14.2L2.7,6.9l0,0l0,0l0,0C2.6,6.8,2.4,6.7,2.2,6.7C1.8,6.7,1.5,7,1.5,7.4c0,0.2,0.1,0.4,0.2,0.5l0,0l0,0c0,0,0,0,0,0l7.8,7.8
	c0.1,0.1,0.3,0.2,0.5,0.2C10.2,15.9,10.4,15.8,10.5,15.7L10.5,15.7z"/>
</svg>
