<?xml version="1.0" encoding="utf-8"?>
<!-- Generator: Adobe Illustrator 21.1.0, SVG Export Plug-In . SVG Version: 6.00 Build 0)  -->
<svg version="1.1" id="图层_1" xmlns="http://www.w3.org/2000/svg" xmlns:xlink="http://www.w3.org/1999/xlink" x="0px" y="0px"
	 viewBox="0 0 21.1 24.9" style="enable-background:new 0 0 21.1 24.9;" xml:space="preserve">
<style type="text/css">
	.st0{fill:#55BD4C;}
</style>
<path class="st0" d="M17.7,19H3.4C2.1,19,1,17.9,1,16.6V2.4C1,1.1,2.1,0,3.4,0H7c1.3,0,2.4,1.1,2.4,2.4h8.3C19,2.4,20,3.4,20,4.8
	v11.9C20,17.9,19,19,17.7,19z M18.8,4.8c0-0.7-0.5-1.2-1.2-1.2H8.2l0-1.2c0-0.7-0.5-1.2-1.2-1.2l-3.6,0c-0.7,0-1.2,0.5-1.2,1.2v3.6
	h16.6V4.8z M18.8,7.1H2.2v9.5c0,0.7,0.5,1.2,1.2,1.2h14.3c0.7,0,1.2-0.5,1.2-1.2L18.8,7.1L18.8,7.1z"/>
</svg>
