<?xml version="1.0" encoding="utf-8"?>
<!-- Generator: Adobe Illustrator 21.1.0, SVG Export Plug-In . SVG Version: 6.00 Build 0)  -->
<svg version="1.1" id="图层_1" xmlns="http://www.w3.org/2000/svg" xmlns:xlink="http://www.w3.org/1999/xlink" x="0px" y="0px"
	 viewBox="0 0 20 20" style="enable-background:new 0 0 20 20;" xml:space="preserve">
<style type="text/css">
	.st0{fill:#6492FF;}
</style>
<g>
	<path class="st0" d="M10,13.9c-1.1,0-2-0.7-2.3-1.6H7.2c0.3,1.2,1.4,2.1,2.8,2.1s2.5-0.9,2.8-2.1h-0.5C12,13.3,11.1,13.9,10,13.9z"
		/>
	<path class="st0" d="M6.1,9c0,0.4,0.4,0.8,0.8,0.8c0.4,0,0.8-0.4,0.8-0.8l0,0c0-0.4-0.4-0.8-0.8-0.8C6.4,8.2,6.1,8.5,6.1,9z"/>
	<path class="st0" d="M11.8,9c0,0.4,0.4,0.8,0.8,0.8c0.4,0,0.8-0.4,0.8-0.8c0-0.4-0.4-0.8-0.8-0.8C12.2,8.2,11.8,8.5,11.8,9z"/>
	<path class="st0" d="M12.9,16.8c1-0.6,1.8-1.4,2.4-2.4c1.5-0.4,6.6-2.4,0.3-10.3c-0.9-2.2-3-3.8-5.6-3.8H9.5
		c-2.5,0-4.7,1.6-5.6,3.8c-6.2,8.5-1.1,10,0.3,10.3c0.6,1.1,1.4,1.9,2.5,2.5c-2.3,0.5-4.4,1.5-6,2.8h1.8c2.1-1.3,4.7-2.1,7.5-2.1
		s5.5,0.8,7.5,2.1h1.8C17.6,18.3,15.4,17.3,12.9,16.8z M9.5,16.5c-2.7,0-4.8-2.1-5-4.7c-0.9-0.1-1.6-0.9-1.6-1.8
		c0-0.9,0.7-1.7,1.6-1.8V6.9c2.4,1,5.3-1.4,6.4-2.4C11,5.1,11,6.4,10.3,7.1c0,0,2.1-0.3,2.2-2.1c0.1,0,0.1,0.1,0.2,0.1
		c0.3,0.6,0.4,1.4-0.4,2c0,0,1.7-0.2,1.9-1.5c0.2,0,0.4,0,0.6,0c0,0.2,0.1,0.5,0.1,0.7v1.9c0.9,0.1,1.6,0.9,1.6,1.8
		c0,0.9-0.7,1.7-1.6,1.8c-0.1,2.6-2.3,4.7-5,4.7H9.5z"/>
</g>
</svg>
