<?xml version="1.0" encoding="utf-8"?>
<!-- Generator: Adobe Illustrator 21.1.0, SVG Export Plug-In . SVG Version: 6.00 Build 0)  -->
<svg version="1.1" id="图层_1" xmlns="http://www.w3.org/2000/svg" xmlns:xlink="http://www.w3.org/1999/xlink" x="0px" y="0px"
	 viewBox="0 0 20 20" style="enable-background:new 0 0 20 20;" xml:space="preserve">
<style type="text/css">
	.st0{fill:#6492FF;}
</style>
<g>
	<path class="st0" d="M13,17.1c1.7-0.9,2.8-2.6,3.1-4.6c1.2-0.1,2.2-1.1,2.2-2.4c0-1.2-0.9-2.2-2.1-2.4V6.4c0-3.4-2.7-6.1-6.1-6.1
		H9.5C6.1,0.2,3.3,3,3.3,6.4v1.4c-1.2,0.1-2.1,1.1-2.1,2.4c0,1.3,1,2.3,2.2,2.4c0.3,2,1.5,3.7,3.2,4.7c-2.4,0.5-4.5,1.5-6.1,2.8h1.8
		c2.1-1.3,4.8-2.1,7.7-2.1s5.6,0.8,7.7,2.1h1.8C17.8,18.6,15.5,17.5,13,17.1z M16.1,11.7V8.3c0.9,0.1,1.6,0.9,1.6,1.8
		c0,0.9-0.7,1.7-1.6,1.8C16.1,11.9,16.1,11.8,16.1,11.7z M1.7,10.1c0-0.9,0.7-1.7,1.6-1.8v3.4c0,0.1,0,0.2,0,0.2
		C2.4,11.8,1.7,11.1,1.7,10.1z M9.5,16.8c-2.8,0-5.1-2.3-5.1-5.1V6.9c3.1,1.3,6.9-3,6.9-3c1.1,1.5,2.8,1.7,3.7,1.7
		c0,0.2,0.1,0.5,0.1,0.7v5.3c0,2.8-2.3,5.1-5.1,5.1L9.5,16.8z"/>
	<path class="st0" d="M10,14.1c-1.1,0-2.1-0.7-2.3-1.6H7.1c0.3,1.2,1.5,2.1,2.9,2.1s2.6-0.9,2.9-2.1h-0.6
		C12.1,13.4,11.1,14.1,10,14.1z"/>
	<path class="st0" d="M6,9.1c0,0.4,0.4,0.8,0.8,0.8c0.4,0,0.8-0.4,0.8-0.8l0,0c0-0.4-0.4-0.8-0.8-0.8C6.4,8.2,6,8.6,6,9.1z"/>
	<path class="st0" d="M11.9,9.1c0,0.4,0.4,0.8,0.8,0.8c0.4,0,0.8-0.4,0.8-0.8c0-0.4-0.4-0.8-0.8-0.8C12.2,8.2,11.9,8.6,11.9,9.1z"/>
</g>
</svg>
