<?xml version="1.0" standalone="no"?><!DOCTYPE svg PUBLIC "-//W3C//DTD SVG 1.1//EN" "http://www.w3.org/Graphics/SVG/1.1/DTD/svg11.dtd"><svg t="1509438487828" class="icon" style="" viewBox="0 0 1024 1024" version="1.1" xmlns="http://www.w3.org/2000/svg" p-id="2455" xmlns:xlink="http://www.w3.org/1999/xlink" width="22" height="22"><defs><style type="text/css"></style></defs><path d="M947.480232 894.270357 710.948121 658.925281c51.28299-62.794162 82.046644-143.002948 82.046644-230.40046 0-201.309912-163.193803-364.504738-364.505761-364.504738S63.981197 227.214908 63.981197 428.52482s163.193803 364.504738 364.505761 364.504738c86.105077 0 165.233252-29.859052 227.603765-79.782068l236.989529 235.799424c7.537673 7.475252 17.337877 11.181667 27.199479 11.181667 9.925047 0 19.787672-3.768837 27.387767-11.369955C962.682469 933.782256 962.619024 909.345704 947.480232 894.270357zM141.17123 428.52482c0-158.426219 128.888486-287.315728 287.315728-287.315728s287.315728 128.890532 287.315728 287.315728S586.916247 715.841571 428.487981 715.841571 141.17123 586.951039 141.17123 428.52482z" p-id="2456" fill="#ffffff"></path></svg>