<svg xmlns="http://www.w3.org/2000/svg" viewBox="2510.651 7306.261 80.522 23.819">
  <defs>
    <style>
      .cls-1 {
        fill: #6492ff;
      }

      .cls-2 {
        fill: #fff;
      }
    </style>
  </defs>
  <g id="Group_2819" data-name="Group 2819" transform="translate(2510.651 7306.261)">
    <g id="Group_1298" data-name="Group 1298" transform="translate(0 0)">
      <rect id="Rectangle_703" data-name="Rectangle 703" class="cls-1" width="74.859" height="23.819" rx="6" transform="translate(5.663)"/>
      <path id="Path_852" data-name="Path 852" class="cls-1" d="M1.3,0,8.1,6.8,0,8.1Z" transform="translate(5.726 5.955) rotate(45)"/>
      <path id="语音" class="cls-2" d="M185.542,19.812a.67.67,0,0,0-.87.038.509.509,0,0,0,.043.776,2.3,2.3,0,0,1,0,3.665.522.522,0,0,0-.2.407.514.514,0,0,0,.16.369.67.67,0,0,0,.87.038,3.321,3.321,0,0,0,0-5.293ZM187.878,18a.67.67,0,0,0-.871,0,.509.509,0,0,0,0,.777,4.833,4.833,0,0,1,0,7.362.508.508,0,0,0,0,.777.67.67,0,0,0,.871,0,5.848,5.848,0,0,0,0-8.911Zm2.315-1.818a.67.67,0,0,0-.871-.016.508.508,0,0,0-.018.777,7.363,7.363,0,0,1,0,11.025.508.508,0,0,0,.019.777.67.67,0,0,0,.871-.017,8.378,8.378,0,0,0,0-12.546Z" transform="translate(-172.892 -10.911)"/>
    </g>
  </g>
</svg>
