<svg xmlns="http://www.w3.org/2000/svg" viewBox="329.622 849.6 94.701 34.387">
  <defs>
    <style>
      .cls-1 {
        fill: #6492ff;
      }
    </style>
  </defs>
  <g id="Group_1" data-name="Group 1" transform="translate(-3 24)">
    <path id="语音" class="cls-1" d="M187.26,26.152a1.788,1.788,0,0,0-2.322.1,1.358,1.358,0,0,0,.115,2.071,6.138,6.138,0,0,1,0,9.781,1.393,1.393,0,0,0-.534,1.086,1.372,1.372,0,0,0,.427.985,1.788,1.788,0,0,0,2.322.1,8.863,8.863,0,0,0,0-14.126Z" transform="translate(148.11 810.587)"/>
    <path id="语音-2" data-name="语音" class="cls-1" d="M187.26,26.152a1.788,1.788,0,0,0-2.322.1,1.358,1.358,0,0,0,.115,2.071,6.138,6.138,0,0,1,0,9.781,1.393,1.393,0,0,0-.534,1.086,1.372,1.372,0,0,0,.427.985,1.788,1.788,0,0,0,2.322.1,8.863,8.863,0,0,0,0-14.126Zm6.234-4.836a1.788,1.788,0,0,0-2.325,0,1.358,1.358,0,0,0,0,2.074,12.9,12.9,0,0,1,0,19.648,1.356,1.356,0,0,0,0,2.074,1.788,1.788,0,0,0,2.325,0,15.607,15.607,0,0,0,0-23.782Z" transform="translate(184.11 810.587)"/>
    <path id="语音-3" data-name="语音" class="cls-1" d="M187.26,26.152a1.788,1.788,0,0,0-2.322.1,1.358,1.358,0,0,0,.115,2.071,6.138,6.138,0,0,1,0,9.781,1.393,1.393,0,0,0-.534,1.086,1.372,1.372,0,0,0,.427.985,1.788,1.788,0,0,0,2.322.1,8.863,8.863,0,0,0,0-14.126Zm6.234-4.836a1.788,1.788,0,0,0-2.325,0,1.358,1.358,0,0,0,0,2.074,12.9,12.9,0,0,1,0,19.648,1.356,1.356,0,0,0,0,2.074,1.788,1.788,0,0,0,2.325,0,15.607,15.607,0,0,0,0-23.782Zm6.178-4.852a1.788,1.788,0,0,0-2.325-.043,1.356,1.356,0,0,0-.048,2.074,19.651,19.651,0,0,1,0,29.424,1.356,1.356,0,0,0,.051,2.074,1.788,1.788,0,0,0,2.325-.045,22.36,22.36,0,0,0,0-33.483Z" transform="translate(220.11 809.587)"/>
  </g>
</svg>
